<?xml version="1.0" encoding="utf-8"?>
<!-- Generator: Adobe Illustrator 21.1.0, SVG Export Plug-In . SVG Version: 6.00 Build 0)  -->
<svg version="1.1" id="Capa_1" xmlns="http://www.w3.org/2000/svg" xmlns:xlink="http://www.w3.org/1999/xlink" x="0px" y="0px"
	 viewBox="0 0 29.5 36.8" style="enable-background:new 0 0 29.5 36.8;" xml:space="preserve">
<style type="text/css">
	.st0{fill:#D5E5F4;}
</style>
<path id="Laboratorio" class="st0" d="M24.3,14.2c-1.4-1.9-3.3-3.3-5.6-4.1c0,0-0.1,0-0.1-0.1c0-0.6,0-2.4,0-2.4h0.7
	c0.8,0,1.4-0.6,1.4-1.4V5c0-0.8-0.6-1.4-1.4-1.4h-9.2C9.4,3.5,8.7,4.2,8.7,5v1.2c0,0.8,0.6,1.4,1.4,1.4h0.7c0,0,0,1.8,0,2.5
	c0,0.1-0.1,0.1-0.1,0.1c-2.2,0.8-4.1,2.2-5.5,4c-1.6,2.1-2.4,4.6-2.4,7.2c0,6.6,5.4,11.9,11.9,11.9S26.7,28,26.7,21.4
	C26.7,18.8,25.8,16.3,24.3,14.2z M11.8,11.3l0.4-0.1c0,0,0.1,0,0.1-0.1c0-0.6,0-3.7,0-4.8c0-0.1-0.1-0.1-0.2-0.1c-0.5,0-1.9,0-1.9,0
	c0,0-0.1,0-0.1-0.1V5c0-0.1,0-0.1,0.1-0.1c2.3,0,9.1,0,9.1,0c0,0,0,0,0,0.1v1.1c0,0,0,0,0,0c0,0-1.5,0-2,0c-0.1,0-0.2,0.1-0.2,0.2
	c0,1.1,0,3.9,0,4.6c0,0.2,0.1,0.2,0.1,0.2l0.4,0.1c2.6,0.8,4.7,2.5,6.1,4.7c0,0.1,0.1,0.2-0.2,0.2H6c-0.4,0-0.3-0.2-0.2-0.3
	C7.1,13.8,9.2,12.1,11.8,11.3z M14.8,31.9C9,31.9,4.2,27.2,4.2,21.4c0-1.2,0.1-2.2,0.5-3.3c0,0,0.1-0.2,0.3-0.2c4.9,0,19.3,0,19.3,0
	c0.3,0,0.3,0.1,0.4,0.2c0.4,1.1,0.6,2.2,0.6,3.4C25.3,27.2,20.6,31.9,14.8,31.9z M9.1,20.3c1.4,0,2.5,1.1,2.5,2.5s-1.1,2.5-2.5,2.5
	s-2.5-1.1-2.5-2.5S7.7,20.3,9.1,20.3z M13.7,25.2c0.9,0,1.6,0.7,1.6,1.6c0,0.9-0.7,1.6-1.6,1.6c-0.9,0-1.6-0.7-1.6-1.6
	C12,25.9,12.8,25.2,13.7,25.2z"/>
</svg>
