<svg xmlns="http://www.w3.org/2000/svg" xmlns:xlink="http://www.w3.org/1999/xlink" viewBox="0 0 521.7 509.13"><defs><style>.cls-1{fill:url(#Degradado_sin_nombre_7);}.cls-2{fill:url(#linear-gradient);}.cls-3{font-size:68.2px;fill:#1d1d1b;font-family:Helvetica;letter-spacing:0.19em;}</style><linearGradient id="Degradado_sin_nombre_7" x1="121.88" y1="244.1" x2="450.81" y2="244.1" gradientUnits="userSpaceOnUse"><stop offset="0" stop-color="#6abd98"/><stop offset="1" stop-color="#308dbc"/></linearGradient><linearGradient id="linear-gradient" x1="68.94" y1="202.59" x2="339.68" y2="202.59" gradientUnits="userSpaceOnUse"><stop offset="0" stop-color="#6abd98"/><stop offset="1" stop-color="#4191ce"/></linearGradient></defs><title>Recurso 5</title><g id="Capa_2" data-name="Capa 2"><g id="Capa_1-2" data-name="Capa 1"><path class="cls-1" d="M448.83,242.91l-30.52-30.52a6.78,6.78,0,0,0-9.58,0l-25.15,25.15H205.34l15-42.59H336.83a17.92,17.92,0,1,0,0-8.64H214.26l-18.08,51.23h-6.3a34.83,34.83,0,1,0,0,20.31h26.17l16.23,46h56.87a15.93,15.93,0,1,0,0-8.64H238.4l-13.18-37.36H383.57L408.73,283a6.78,6.78,0,0,0,9.58,0l30.52-30.52A6.78,6.78,0,0,0,448.83,242.91Zm-94.62-63.4A11.2,11.2,0,1,1,343,190.71,11.21,11.21,0,0,1,354.21,179.51ZM157.13,267.07A19.37,19.37,0,1,1,176.5,247.7,19.38,19.38,0,0,1,157.13,267.07Zm147.34,23.18a9.22,9.22,0,1,1-9.22,9.22A9.22,9.22,0,0,1,304.47,290.25Z"/><path class="cls-2" d="M273.37,364.37a114.21,114.21,0,0,1-46.78,9.87,118,118,0,0,1-49.31-10.32A123.18,123.18,0,0,1,138,336.12a127.5,127.5,0,0,1-25.78-40.59A130.63,130.63,0,0,1,103,246.41a126.18,126.18,0,0,1,36.54-89.7A128,128,0,0,1,179,129.8a116.52,116.52,0,0,1,13.29-4.88V32.7H250l.4,89.65a122,122,0,0,1,23.7,7.45,143.33,143.33,0,0,1,42,27.81L339.68,137a171.17,171.17,0,0,0-52-34.76c-2.83-1.23-5.68-2.35-8.54-3.4V32s-.61.49.89.49c10,0,18.14-7.28,18.14-16.26S290,0,280,0H164.68c-10,0-18.14,7.28-18.14,16.25s8.12,16.26,18.14,16.26c1.5,0-.33-.49-.33-.49v70.52a165.9,165.9,0,0,0-49.37,34,158.73,158.73,0,0,0-33.78,50A152.52,152.52,0,0,0,82,308.09,165.26,165.26,0,0,0,167,392.63a147.43,147.43,0,0,0,119.61-.23,189,189,0,0,0,52-34.76L315.16,337A159,159,0,0,1,273.37,364.37Z"/><text/><text class="cls-3" transform="translate(0 476.32)">Connections</text></g></g></svg>