<?xml version="1.0" encoding="utf-8"?>
<!-- Generator: Adobe Illustrator 21.1.0, SVG Export Plug-In . SVG Version: 6.00 Build 0)  -->
<svg version="1.1" id="Capa_1" xmlns="http://www.w3.org/2000/svg" xmlns:xlink="http://www.w3.org/1999/xlink" x="0px" y="0px"
	 viewBox="0 0 38.9 42.6" style="enable-background:new 0 0 38.9 42.6;" xml:space="preserve">
<style type="text/css">
	.st0{fill:#D5E5F4;}
</style>
<path id="Interpretacion" class="st0" d="M21.6,36.2c-3.7,0-6.7-3-6.8-6.7l-1.1-4.3c-1.6-0.3-3.1-1.3-4.5-2.9
	c-0.3-0.3-0.4-0.7-0.4-1.1c-1.8-2.4-2.9-5.7-2.9-8.3c0-3.5,3.4-5.2,5.2-5.6l0.4,1.5c-0.2,0-3.9,1-3.9,4.1c0,2.4,1.1,5.4,2.8,7.6
	l0.2,0.3l0,0.3c0,0,0,0.1,0,0.2c1.2,1.4,2.6,2.2,3.9,2.4c1.5-0.2,4-1.1,5.2-2.4c0-0.1,0-0.1,0-0.2l0-0.3l0.2-0.3
	c1.6-2.2,2.7-5.2,2.7-7.6c0-3.2-1.1-3.5-3.9-4.1l0.4-1.5c2.9,0.7,5.2,1.2,5.2,5.6c0,2.6-1.1,5.9-2.9,8.3c0,0.4-0.2,0.8-0.4,1.1
	c-1.3,1.5-3.7,2.4-5.4,2.8l1.1,4.3c0,2.9,2.3,5.2,5.2,5.2c2.9,0,5.2-2.3,5.2-5.2l0.1-3.5c-2-0.7-3.4-2.6-3.4-4.7
	c0-2.7,2.2-4.8,4.9-4.8c2.7,0,4.9,2.2,4.9,4.8c0,2.4-1.7,4.4-4.1,4.8L28.4,26l-0.1,3.4C28.4,33.2,25.3,36.2,21.6,36.2z M28.3,18.2
	c-1.6,0-2.9,1.3-2.9,2.9c0,1.6,1.3,2.9,2.9,2.9c1.6,0,2.9-1.3,2.9-2.9C31.2,19.6,29.9,18.2,28.3,18.2z M12,9.4
	c-0.8,0-1.5-0.7-1.5-1.5s0.7-1.5,1.5-1.5c0.8,0,1.5,0.7,1.5,1.5S12.9,9.4,12,9.4z M17.6,9.4c-0.8,0-1.5-0.7-1.5-1.5s0.7-1.5,1.5-1.5
	c0.8,0,1.5,0.7,1.5,1.5S18.4,9.4,17.6,9.4z"/>
</svg>
